<svg width="343" height="118" viewBox="0 0 343 118" fill="none" xmlns="http://www.w3.org/2000/svg">
<path d="M30.8789 52.4805C31.875 52.4805 32.373 52.8711 32.373 53.6523C32.373 54.0039 32.1582 54.3164 31.7285 54.5898C31.2988 54.8633 30.5566 55 29.502 55H4.6875V13.5449C12.3828 13.5449 20.0781 13.5449 27.7734 13.5449L30.1758 13.457C31.6406 13.457 32.373 13.8867 32.373 14.7461C32.373 15.0781 32.2461 15.3906 31.9922 15.6836C31.7578 15.957 31.4844 16.0938 31.1719 16.0938C30.6641 16.0938 30.127 16.0352 29.5605 15.918C28.7207 15.7422 27.5684 15.6543 26.1035 15.6543H19.6289V24.5898H24.9609C24.9609 24.5898 26.1621 24.541 28.5645 24.4434C28.9941 24.4434 29.3555 24.5508 29.6484 24.7656C29.9609 24.9609 30.1172 25.2441 30.1172 25.6152C30.1172 26.4355 29.5703 26.8457 28.4766 26.8457L27.2168 26.8164C26.5723 26.7578 26.0352 26.7285 25.6055 26.7285H19.6289V52.8613H26.1035C27.5488 52.8613 28.5742 52.8027 29.1797 52.6855C29.9023 52.5488 30.4688 52.4805 30.8789 52.4805ZM51.8262 53.125C52.7441 53.3008 53.6621 53.3887 54.5801 53.3887C55.5176 53.3887 56.416 53.3203 57.2754 53.1836C58.1543 53.0273 58.9844 52.8125 59.7656 52.5391C61.4258 51.9531 62.7637 51.2109 63.7793 50.3125C64.502 49.6875 65.0293 49.375 65.3613 49.375C66.1035 49.375 66.4746 49.707 66.4746 50.3711C66.4746 51.0352 65.8691 51.8262 64.6582 52.7441C61.8457 54.6191 58.4668 55.5566 54.5215 55.5566C49.3848 55.5566 45.2344 54.0137 42.0703 50.9277C38.9648 47.8809 37.4121 43.9258 37.4121 39.0625C37.4121 34.4531 39.0625 30.6445 42.3633 27.6367C45.6445 24.668 49.7656 23.1836 54.7266 23.1836C57.5586 23.1836 60.2832 23.7695 62.9004 24.9414C64.8926 25.8008 65.8887 26.6895 65.8887 27.6074C65.8887 27.998 65.7715 28.3008 65.5371 28.5156C65.3223 28.7109 65.0781 28.8086 64.8047 28.8086C64.3945 28.8086 63.8672 28.584 63.2227 28.1348C61.9531 26.9238 60.0684 26.0742 57.5684 25.5859C56.6699 25.4102 55.6836 25.3223 54.6094 25.3223C53.5352 25.3223 52.6074 25.4004 51.8262 25.5566V53.125ZM97.0898 23.1836C103.965 23.1836 107.402 26.5234 107.402 33.2031V55H94.8047V26.4941C94.4531 26.2598 93.9844 26.1426 93.3984 26.1426C92.832 26.1426 92.2363 26.2793 91.6113 26.5527C90.9863 26.8262 90.332 27.207 89.6484 27.6953C88.1836 28.7695 86.8848 30.1172 85.752 31.7383V55H73.1543V13.5449H85.752V28.6621C89.0918 25.0098 92.8711 23.1836 97.0898 23.1836ZM114.287 39.1797C114.287 36.8359 114.707 34.707 115.547 32.793C116.406 30.8594 117.578 29.1797 119.062 27.7539C122.266 24.707 126.289 23.1836 131.133 23.1836C136.074 23.1836 140.098 24.7656 143.203 27.9297C146.172 30.918 147.656 34.6973 147.656 39.2676C147.656 43.8574 146.133 47.6953 143.086 50.7812C139.941 53.9648 135.918 55.5566 131.016 55.5566C126.23 55.5566 122.266 54.043 119.121 51.0156C115.898 47.8906 114.287 43.9453 114.287 39.1797ZM130.195 53.3594C130.352 53.3789 130.508 53.3887 130.664 53.3887H131.074C135.02 53.3887 138.33 52.168 141.006 49.7266C143.857 47.0898 145.283 43.6328 145.283 39.3555C145.283 35.1758 143.945 31.7871 141.27 29.1895C138.633 26.6113 135.225 25.3223 131.045 25.3223H130.605C130.469 25.3223 130.332 25.332 130.195 25.3516V53.3594Z" fill="white"/>
<path d="M163.415 30.5149V47.4301" stroke="#EEF1F4" stroke-width="1.5" stroke-linecap="round" stroke-linejoin="round"/>
<path d="M176.277 24.8765V53.0684" stroke="#EEF1F4" stroke-width="1.5" stroke-linecap="round" stroke-linejoin="round"/>
<path d="M189.14 19.2382V58.7068" stroke="#EEF1F4" stroke-width="1.5" stroke-linecap="round" stroke-linejoin="round"/>
<path d="M202.002 24.8765V53.0684" stroke="#EEF1F4" stroke-width="1.5" stroke-linecap="round" stroke-linejoin="round"/>
<path d="M214.865 30.5149V47.4301" stroke="#EEF1F4" stroke-width="1.5" stroke-linecap="round" stroke-linejoin="round"/>
</svg>
